<svg xmlns="http://www.w3.org/2000/svg" width="445" height="128" viewBox="0 0 445 128">
  <path fill="#001E60" fill-rule="evenodd" d="M389.351276,30.34 L407.551236,82.7 L407.840917,82.7 L425.531437,30.37 L445,30.37 L418.169544,96.09 C415.046316,105.01 411.490232,111.77 407.501291,116.37 C403.936391,120.441767 399.275596,123.399632 394.076074,124.89 C388.528848,126.596667 380.780713,127.633333 370.831668,128 L370.831668,114.61 C378.982693,114.516667 385.095962,113.516667 389.171474,111.61 C393.167074,109.89 396.436807,105.923333 398.980673,99.71 L370.01257,30.34 L389.351276,30.34 Z M320.1275,-1.27897692e-13 L320.1275,31.07 C325.616467,29.5469221 331.283111,28.760049 336.978945,28.73 C348.02678,28.9233333 355.731629,31.59 360.093493,36.73 C364.455356,41.87 366.682903,48.7933333 366.776134,57.5 L366.776134,72.19 C366.776134,78.79 365.757256,84.2466667 363.7195,88.56 C359.537438,97.2666667 349.741558,101.62 334.331859,101.62 C323.900721,101.683671 313.478544,100.995224 303.146199,99.56 L303.146199,-1.27897692e-13 L320.1275,-1.27897692e-13 Z M110.238614,28.8 C120.354142,28.8 127.849222,31.0433333 132.723855,35.53 C137.598487,40.0166667 140.035803,47.6166667 140.035803,58.33 C140.035803,60.56 139.846012,64.32 139.336573,69.63 L94.2262453,69.63 C94.2262453,75.9433333 95.5248154,80.61 98.1219556,83.63 C101.371711,86.75 106.955562,88.2066667 114.87351,88 C122.105547,88 132.67391,87.4 138.707266,86 L138.707266,99.24 C130.335649,100.774161 121.845786,101.570543 113.335204,101.62 C99.6036574,101.62 90.1806999,98.9533333 85.0663315,93.62 C79.951963,88.2866667 77.3548228,78.9033333 77.2749108,65.47 C77.2749108,50.55 80.1983584,40.6166667 86.0452535,35.67 C88.9290203,33.1527544 92.3437346,31.3204521 96.0342544,30.31 C100.684923,29.1998562 105.458774,28.6923701 110.238614,28.8 Z M258.405464,28.86 C271.218022,28.86 280.131541,31.6066667 285.146019,37.1 C288.017278,39.9770375 289.94721,43.6598019 290.679925,47.66 C291.369997,50.8633425 291.70499,54.1331165 291.678826,57.41 L291.678826,73.06 C291.786735,77.9261883 290.983775,82.7695991 289.311432,87.34 C288.176888,90.1319988 286.412834,92.6235599 284.157108,94.62 C278.683135,99.2866667 270.095924,101.62 258.395475,101.62 C245.682806,101.62 236.726002,98.92 231.525062,93.52 C228.826977,90.56333 226.910825,86.9777622 225.9512,83.09 C225.316434,80.0764785 224.982112,77.0080109 224.952745,73.9297381 L224.9523,57.41 C224.852623,52.5867748 225.655578,47.7874805 227.319693,43.26 C228.450379,40.4612429 230.230984,37.9725069 232.513973,36 C237.987946,31.24 246.618443,28.86 258.405464,28.86 Z M186.334822,29.12 C196.916504,29.12 204.201815,31.21 208.190756,35.39 C212.279587,39.67 214.324003,46.78 214.324003,56.72 L214.324003,100 L197.342701,100 L197.342701,60 C197.342701,53.96 196.506955,49.6866667 194.835462,47.18 C193.167299,44.58 189.491347,43.28 183.847561,43.28 C178.833005,43.2948532 173.851601,44.09451 169.083818,45.65 L169.083818,100 L152.102516,100 L152.102516,30.37 L165.587668,30.37 L166.696447,33.86 C172.78616,30.7749779 179.509867,29.1521162 186.334822,29.12 Z M18.6095086,-7.10542736e-14 L18.6095086,99.95 L6.03961325e-14,99.95 L6.03961325e-14,-7.10542736e-14 L18.6095086,-7.10542736e-14 Z M76.9452737,30.37 L42.1935397,65.16 L76.9452737,99.95 L53.3612427,99.95 L18.6095086,65.16 L53.3612427,30.37 L76.9452737,30.37 Z M258.405464,42.71 C252.285536,42.71 248.016903,43.74 245.599565,45.8 C243.182226,47.86 241.976887,51.73 241.983519,57.41 L241.983519,73.06 C241.983519,78.74 243.212193,82.63 245.669488,84.73 C248.126782,86.83 252.372107,87.8833333 258.405464,87.89 C264.43882,87.89 268.64086,86.8366667 271.011583,84.73 C273.382306,82.6233333 274.610953,78.7333333 274.697524,73.06 L274.697524,57.41 C274.697524,51.73 273.492185,47.86 271.081506,45.8 C268.670827,43.74 264.44548,42.71 258.405464,42.71 Z M320.1275,44.27 L320.1275,87.05 C324.939767,87.5375496 329.774826,87.7645468 334.611551,87.73 C340.365216,87.73 344.310871,86.6766667 346.448517,84.57 C348.586164,82.4633333 349.641668,78.6066667 349.615031,73 L349.615031,57.48 C349.615031,51.7 348.5229,47.78 346.338638,45.72 C344.154377,43.66 340.252007,42.6266667 334.631529,42.62 C329.746313,42.5478142 324.871978,43.1023258 320.1275,44.27 Z M110.238614,42.6 C105.224135,42.6 101.461612,43.7666667 98.9510427,46.1 C96.4404738,48.4333333 94.9554423,52.43 94.4959483,58.09 L123.603897,58.09 C123.725551,57.0949221 123.772298,56.0920955 123.743743,55.09 C123.743743,46.7633333 119.242033,42.6 110.238614,42.6 Z"/>
</svg>
